<?xml version="1.0" encoding="UTF-8" standalone="no"?>
<!-- Created with Inkscape (http://www.inkscape.org/) -->

<svg
   width="201.35735mm"
   height="73.545998mm"
   viewBox="0 0 201.35735 73.545997"
   version="1.1"
   id="svg1"
   inkscape:version="1.3 (0e150ed6c4, 2023-07-21)"
   sodipodi:docname="fundus_logo_darkmode_mit_schriftzug_und_schutzzone.svg"
   xml:space="preserve"
   inkscape:export-filename="fundus_logo_preview.png"
   inkscape:export-xdpi="96"
   inkscape:export-ydpi="96"
   xmlns:inkscape="http://www.inkscape.org/namespaces/inkscape"
   xmlns:sodipodi="http://sodipodi.sourceforge.net/DTD/sodipodi-0.dtd"
   xmlns="http://www.w3.org/2000/svg"
   xmlns:svg="http://www.w3.org/2000/svg"><sodipodi:namedview
     id="namedview1"
     pagecolor="#505050"
     bordercolor="#eeeeee"
     borderopacity="1"
     inkscape:showpageshadow="0"
     inkscape:pageopacity="0"
     inkscape:pagecheckerboard="0"
     inkscape:deskcolor="#505050"
     inkscape:document-units="mm"
     inkscape:zoom="0.51717104"
     inkscape:cx="433.12557"
     inkscape:cy="101.5138"
     inkscape:window-width="1920"
     inkscape:window-height="1017"
     inkscape:window-x="-8"
     inkscape:window-y="-8"
     inkscape:window-maximized="1"
     inkscape:current-layer="svg1"
     showgrid="false" /><defs
     id="defs1"><rect
       x="612.91034"
       y="180.4782"
       width="437.14462"
       height="213.2924"
       id="rect443" /><rect
       x="2972.4211"
       y="74.081711"
       width="1755.5607"
       height="252.47018"
       id="rect1" /><inkscape:path-effect
       effect="perspective-envelope"
       up_left_point="215.38248,359.65294"
       up_right_point="401.34812,359.65294"
       down_left_point="215.38248,477.32035"
       down_right_point="401.34812,477.32035"
       id="path-effect116"
       is_visible="true"
       lpeversion="1"
       deform_type="perspective"
       horizontal_mirror="false"
       vertical_mirror="false"
       overflow_perspective="false" /><inkscape:path-effect
       effect="perspective-envelope"
       up_left_point="230.28,359.65294"
       up_right_point="401.34812,359.65294"
       down_left_point="215.38248,477.32035"
       down_right_point="401.34812,477.32035"
       id="path-effect112"
       is_visible="true"
       lpeversion="1"
       deform_type="perspective"
       horizontal_mirror="false"
       vertical_mirror="false"
       overflow_perspective="false" /><rect
       x="2972.4211"
       y="74.081711"
       width="1755.5607"
       height="252.47018"
       id="rect2" /><rect
       x="2972.4211"
       y="74.081711"
       width="1755.5607"
       height="252.47018"
       id="rect6" /><rect
       x="2972.4211"
       y="74.081711"
       width="1755.5607"
       height="252.47018"
       id="rect10" /><rect
       x="2972.4211"
       y="74.081711"
       width="1755.5607"
       height="252.47018"
       id="rect167" /><rect
       x="2972.4211"
       y="74.081711"
       width="1755.5607"
       height="252.47018"
       id="rect171" /><rect
       x="2972.4211"
       y="74.081711"
       width="1755.5607"
       height="252.47018"
       id="rect175" /><rect
       x="2972.4211"
       y="74.081711"
       width="1755.5607"
       height="252.47018"
       id="rect177" /><rect
       x="2972.4211"
       y="74.081711"
       width="1755.5607"
       height="252.47018"
       id="rect181" /><rect
       x="2972.4211"
       y="74.081711"
       width="1755.5607"
       height="252.47018"
       id="rect183" /></defs><g
     inkscape:groupmode="layer"
     id="layer2"
     inkscape:label="Left"
     transform="translate(-30.321335,-119.5306)"><g
       id="g31"
       transform="translate(-337.74548,-135.19844)"
       style="display:inline;fill:#0bad88;fill-opacity:1"><text
         xml:space="preserve"
         style="font-style:normal;font-variant:normal;font-weight:normal;font-stretch:normal;font-size:27.0476px;font-family:Montserrat;-inkscape-font-specification:Montserrat;text-align:center;letter-spacing:2.21368px;text-anchor:middle;display:inline;fill:#0bad88;fill-opacity:1;stroke:none;stroke-width:1.56624;stroke-linecap:butt;stroke-linejoin:miter;stroke-dasharray:none;stroke-opacity:1;paint-order:markers fill stroke"
         x="492.69302"
         y="300.96866"
         id="text30"><tspan
           sodipodi:role="line"
           id="tspan30"
           style="font-style:normal;font-variant:normal;font-weight:500;font-stretch:normal;font-size:27.0476px;font-family:Quicksand;-inkscape-font-specification:'Quicksand Medium';letter-spacing:2.21368px;fill:#0bad88;fill-opacity:1;stroke:none;stroke-width:1.56624"
           x="493.79987"
           y="300.96866"
           dx="0 0">FUNDUS</tspan></text><path
         id="path30"
         style="display:inline;fill:#0bad88;fill-opacity:1;stroke:none;stroke-width:2.33;stroke-linecap:round;stroke-linejoin:round;stroke-dasharray:none;stroke-opacity:1;paint-order:markers fill stroke"
         d="m 390.32543,273.11554 c -2.14536,0 -3.87212,1.72727 -3.87212,3.87263 v 29.02768 c 0,2.14536 1.72676,3.87264 3.87212,3.87264 h 3.38894 v -11.73107 -5.4746 a 1.1648149,1.1648149 0 0 1 0.0806,-0.40825 1.1648149,1.1648149 0 0 1 0.0579,-0.11368 1.1648149,1.1648149 0 0 1 0.16227,-0.24237 1.1648149,1.1648149 0 0 1 0.10077,-0.10077 1.1648149,1.1648149 0 0 1 0.24184,-0.16174 1.1648149,1.1648149 0 0 1 0.11472,-0.0584 1.1648149,1.1648149 0 0 1 0.40773,-0.0806 h 14.78928 a 1.1648149,1.1648149 0 0 1 0.007,5.1e-4 1.164795,1.164795 0 0 1 0.003,-5.1e-4 c 1.54606,0.0136 2.97702,-0.79826 3.75791,-2.13269 0.78081,-1.33443 0.78877,-2.97944 0.0196,-4.32067 -0.76913,-1.34123 -2.19216,-2.16575 -3.73827,-2.16575 a 1.164795,1.164795 0 0 1 -0.031,-0.005 1.165,1.165 0 0 1 -0.0176,0.003 h -12.03906 c -0.56507,-0.005 -1.08557,0.28949 -1.37098,0.77721 -0.28534,0.48772 -0.28679,1.08592 -0.006,1.57613 0.28112,0.49021 0.79813,0.79117 1.36322,0.79117 a 1.165,1.165 0 0 1 0.0181,0.002 h 12.03492 a 1.1648149,1.1648149 0 0 1 1.16376,1.16375 1.1648149,1.1648149 0 0 1 -1.16376,1.16427 h -12.05301 a 1.1648149,1.1648149 0 0 1 -0.0165,-0.003 c -1.3898,-0.006 -2.67648,-0.75219 -3.36826,-1.95854 -0.69449,-1.21116 -0.68758,-2.70689 0.0176,-3.9119 0.69815,-1.19305 1.98069,-1.92764 3.36103,-1.93064 a 1.165,1.165 0 0 1 0.006,-10e-4 h 12.05198 a 1.165,1.165 0 0 1 0.0455,0.003 1.164795,1.164795 0 0 1 0.003,-5.1e-4 c 2.37704,0 4.5753,1.27574 5.75779,3.33778 1.18251,2.06205 1.17315,4.60485 -0.0274,6.65644 -1.19889,2.04876 -3.40576,3.30237 -5.77897,3.28507 h -13.62501 v 3.14658 h 13.62501 a 1.1648149,1.1648149 0 0 1 1.16375,1.16375 1.1648149,1.1648149 0 0 1 -1.16375,1.16427 h -13.62501 v 10.5668 h 23.30917 c 2.14536,0 3.87263,-1.72728 3.87263,-3.87264 v -29.02768 c 0,-2.14536 -1.72727,-3.87263 -3.87263,-3.87263 z" /></g></g></svg>
