<?xml version="1.0" encoding="UTF-8" standalone="no"?>
<!-- Created with Inkscape (http://www.inkscape.org/) -->

<svg
   width="164.58434mm"
   height="36.772991mm"
   viewBox="0 0 164.58434 36.772991"
   version="1.1"
   id="svg1"
   inkscape:version="1.3 (0e150ed6c4, 2023-07-21)"
   sodipodi:docname="fundus_logo_darkmode_mit_schriftzug_ohne_schutzzone.svg"
   xml:space="preserve"
   inkscape:export-filename="fundus_logo_preview.png"
   inkscape:export-xdpi="96"
   inkscape:export-ydpi="96"
   xmlns:inkscape="http://www.inkscape.org/namespaces/inkscape"
   xmlns:sodipodi="http://sodipodi.sourceforge.net/DTD/sodipodi-0.dtd"
   xmlns="http://www.w3.org/2000/svg"
   xmlns:svg="http://www.w3.org/2000/svg"><sodipodi:namedview
     id="namedview1"
     pagecolor="#505050"
     bordercolor="#eeeeee"
     borderopacity="1"
     inkscape:showpageshadow="0"
     inkscape:pageopacity="0"
     inkscape:pagecheckerboard="0"
     inkscape:deskcolor="#505050"
     inkscape:document-units="mm"
     inkscape:zoom="0.51717104"
     inkscape:cx="17.402367"
     inkscape:cy="250.40072"
     inkscape:window-width="1920"
     inkscape:window-height="1017"
     inkscape:window-x="-8"
     inkscape:window-y="-8"
     inkscape:window-maximized="1"
     inkscape:current-layer="g31"
     showgrid="false" /><defs
     id="defs1"><rect
       x="612.91034"
       y="180.4782"
       width="437.14462"
       height="213.2924"
       id="rect443" /><rect
       x="2972.4211"
       y="74.081711"
       width="1755.5607"
       height="252.47018"
       id="rect1" /><inkscape:path-effect
       effect="perspective-envelope"
       up_left_point="215.38248,359.65294"
       up_right_point="401.34812,359.65294"
       down_left_point="215.38248,477.32035"
       down_right_point="401.34812,477.32035"
       id="path-effect116"
       is_visible="true"
       lpeversion="1"
       deform_type="perspective"
       horizontal_mirror="false"
       vertical_mirror="false"
       overflow_perspective="false" /><inkscape:path-effect
       effect="perspective-envelope"
       up_left_point="230.28,359.65294"
       up_right_point="401.34812,359.65294"
       down_left_point="215.38248,477.32035"
       down_right_point="401.34812,477.32035"
       id="path-effect112"
       is_visible="true"
       lpeversion="1"
       deform_type="perspective"
       horizontal_mirror="false"
       vertical_mirror="false"
       overflow_perspective="false" /><rect
       x="2972.4211"
       y="74.081711"
       width="1755.5607"
       height="252.47018"
       id="rect2" /><rect
       x="2972.4211"
       y="74.081711"
       width="1755.5607"
       height="252.47018"
       id="rect6" /><rect
       x="2972.4211"
       y="74.081711"
       width="1755.5607"
       height="252.47018"
       id="rect10" /><rect
       x="2972.4211"
       y="74.081711"
       width="1755.5607"
       height="252.47018"
       id="rect167" /><rect
       x="2972.4211"
       y="74.081711"
       width="1755.5607"
       height="252.47018"
       id="rect171" /><rect
       x="2972.4211"
       y="74.081711"
       width="1755.5607"
       height="252.47018"
       id="rect175" /><rect
       x="2972.4211"
       y="74.081711"
       width="1755.5607"
       height="252.47018"
       id="rect177" /><rect
       x="2972.4211"
       y="74.081711"
       width="1755.5607"
       height="252.47018"
       id="rect181" /><rect
       x="2972.4211"
       y="74.081711"
       width="1755.5607"
       height="252.47018"
       id="rect183" /></defs><g
     inkscape:groupmode="layer"
     id="layer2"
     inkscape:label="Left"
     transform="translate(-48.70783,-137.9171)"><g
       id="g31"
       transform="translate(-337.74548,-135.19844)"
       style="display:inline;fill:#0bad88;fill-opacity:1"><path
         style="font-weight:500;font-size:27.0476px;font-family:Quicksand;-inkscape-font-specification:'Quicksand Medium';text-align:center;letter-spacing:2.21368px;text-anchor:middle;stroke-width:1.56624;paint-order:markers fill stroke"
         d="m 436.59337,300.96866 q -0.48686,0 -0.81143,-0.32457 -0.29753,-0.32457 -0.29753,-0.78438 v -16.74247 q 0,-0.45981 0.29753,-0.75733 0.32457,-0.32457 0.78438,-0.32457 h 9.49371 q 0.4598,0 0.78438,0.29752 0.32457,0.29753 0.32457,0.75733 0,0.43277 -0.32457,0.73029 -0.32458,0.29752 -0.78438,0.29752 h -8.52 l 0.16229,-0.21638 v 6.62666 l -0.13524,-0.29752 h 7.2758 q 0.45981,0 0.78438,0.32457 0.32457,0.29753 0.32457,0.75734 0,0.40571 -0.32457,0.73028 -0.32457,0.29752 -0.78438,0.29752 h -7.3299 l 0.18934,-0.24342 v 7.76266 q 0,0.45981 -0.32457,0.78438 -0.32458,0.32457 -0.78438,0.32457 z m 29.80224,-18.96037 q 0.45981,0 0.75733,0.32457 0.29753,0.32457 0.29753,0.78438 v 10.7379 q 0,2.08266 -0.97372,3.73257 -0.94666,1.6499 -2.56952,2.62362 -1.62285,0.94666 -3.67847,0.94666 -2.08267,0 -3.73257,-0.94666 -1.62286,-0.97372 -2.56952,-2.62362 Q 452.98,295.9378 452.98,293.85514 v -10.7379 q 0,-0.45981 0.29753,-0.78438 0.32457,-0.32457 0.83847,-0.32457 0.43276,0 0.75733,0.32457 0.35162,0.32457 0.35162,0.78438 v 10.7379 q 0,1.48762 0.67619,2.65066 0.67619,1.16305 1.81219,1.83924 1.16305,0.64914 2.51543,0.64914 1.37943,0 2.54247,-0.64914 1.16305,-0.67619 1.86629,-1.83924 0.73028,-1.16304 0.73028,-2.65066 v -10.7379 q 0,-0.45981 0.27048,-0.78438 0.27047,-0.32457 0.75733,-0.32457 z m 22.0125,0.0271 q 0.45981,0 0.73029,0.29752 0.27047,0.27048 0.27047,0.70324 v 16.79656 q 0,0.5139 -0.32457,0.83847 -0.32457,0.29753 -0.78438,0.29753 -0.24343,0 -0.48686,-0.0811 -0.24343,-0.10819 -0.37866,-0.27048 l -11.57638,-15.30894 0.54096,-0.32457 v 14.98437 q 0,0.43276 -0.29753,0.73028 -0.27047,0.27048 -0.73028,0.27048 -0.43276,0 -0.70324,-0.27048 -0.27048,-0.29752 -0.27048,-0.73028 v -16.85066 q 0,-0.48685 0.29753,-0.78438 0.32457,-0.29752 0.75733,-0.29752 0.24343,0 0.48686,0.10819 0.27047,0.0811 0.40571,0.27047 l 11.41409,15.09257 -0.35162,0.43276 V 283.0361 q 0,-0.43276 0.27048,-0.70324 0.29752,-0.29752 0.73028,-0.29752 z m 15.79156,0 q 1.97448,0 3.4621,0.75733 1.51466,0.73029 2.51542,2.05562 1.00076,1.32533 1.48762,3.05638 0.51391,1.704 0.51391,3.59733 0,2.59657 -0.89258,4.76038 -0.89257,2.13676 -2.65066,3.43504 -1.75809,1.27124 -4.43581,1.27124 h -6.7619 q -0.45981,0 -0.78438,-0.32457 -0.29752,-0.32457 -0.29752,-0.78438 v -16.74247 q 0,-0.45981 0.29752,-0.75733 0.32457,-0.32457 0.78438,-0.32457 z m -0.27047,16.82361 q 2.08266,0 3.38095,-1.00077 1.32533,-1.00076 1.92038,-2.67771 0.62209,-1.67695 0.62209,-3.67847 0,-1.46057 -0.35162,-2.7859 -0.32457,-1.35238 -1.05485,-2.38019 -0.70324,-1.02781 -1.83924,-1.62286 -1.10895,-0.59505 -2.67771,-0.59505 h -5.54476 l 0.21638,-0.21638 v 15.2278 l -0.16229,-0.27047 z m 27.47615,-16.85066 q 0.45981,0 0.75733,0.32457 0.29752,0.32457 0.29752,0.78438 v 10.7379 q 0,2.08266 -0.97371,3.73257 -0.94666,1.6499 -2.56952,2.62362 -1.62286,0.94666 -3.67847,0.94666 -2.08267,0 -3.73257,-0.94666 -1.62286,-0.97372 -2.56953,-2.62362 -0.94666,-1.64991 -0.94666,-3.73257 v -10.7379 q 0,-0.45981 0.29752,-0.78438 0.32457,-0.32457 0.83848,-0.32457 0.43276,0 0.75733,0.32457 0.35162,0.32457 0.35162,0.78438 v 10.7379 q 0,1.48762 0.67619,2.65066 0.67619,1.16305 1.81219,1.83924 1.16305,0.64914 2.51543,0.64914 1.37942,0 2.54247,-0.64914 1.16305,-0.67619 1.86628,-1.83924 0.73029,-1.16304 0.73029,-2.65066 v -10.7379 q 0,-0.45981 0.27048,-0.78438 0.27047,-0.32457 0.75733,-0.32457 z m 13.24906,19.23084 q -2.00152,0 -3.51618,-0.59504 -1.51467,-0.59505 -2.92114,-1.89333 -0.18934,-0.18934 -0.32458,-0.40572 -0.10819,-0.24343 -0.10819,-0.5139 0,-0.43276 0.29753,-0.75734 0.32457,-0.35161 0.78438,-0.35161 0.37866,0 0.67619,0.29752 1.05485,1.02781 2.272,1.56876 1.24419,0.54095 2.7859,0.54095 1.19009,0 2.13676,-0.37866 0.97371,-0.37867 1.54171,-1.05486 0.568,-0.67619 0.568,-1.56876 -0.0271,-1.08191 -0.64914,-1.78514 -0.59505,-0.70324 -1.67695,-1.16305 -1.05486,-0.48686 -2.46133,-0.81143 -1.24419,-0.29752 -2.29905,-0.73028 -1.02781,-0.43277 -1.78514,-1.05486 -0.75733,-0.64914 -1.19009,-1.54171 -0.40572,-0.91962 -0.40572,-2.13676 0,-1.54172 0.81143,-2.70476 0.81143,-1.16305 2.24495,-1.78515 1.43352,-0.64914 3.29981,-0.64914 1.6499,0 3.11047,0.54095 1.48762,0.54096 2.38019,1.48762 0.54095,0.51391 0.54095,1.00076 0,0.40572 -0.35162,0.75734 -0.32457,0.32457 -0.75733,0.32457 -0.29752,0 -0.54095,-0.21638 -0.45981,-0.51391 -1.16305,-0.91962 -0.70324,-0.40572 -1.54171,-0.64914 -0.83848,-0.24343 -1.67695,-0.24343 -1.24419,0 -2.19086,0.37866 -0.94666,0.35162 -1.48762,1.02781 -0.5139,0.64915 -0.5139,1.56876 0,1.02781 0.59505,1.704 0.59504,0.64914 1.5958,1.08191 1.00077,0.40571 2.21791,0.73028 1.32533,0.32457 2.43428,0.75733 1.136,0.40572 1.94743,1.02781 0.81143,0.6221 1.24419,1.59581 0.45981,0.94667 0.45981,2.35314 0,1.48762 -0.83848,2.65067 -0.83847,1.16304 -2.29904,1.83923 -1.43353,0.64915 -3.24572,0.67619 z"
         id="text30"
         aria-label="FUNDUS" /><path
         id="path30"
         style="display:inline;fill:#0bad88;fill-opacity:1;stroke:none;stroke-width:2.33;stroke-linecap:round;stroke-linejoin:round;stroke-dasharray:none;stroke-opacity:1;paint-order:markers fill stroke"
         d="m 390.32543,273.11554 c -2.14536,0 -3.87212,1.72727 -3.87212,3.87263 v 29.02768 c 0,2.14536 1.72676,3.87264 3.87212,3.87264 h 3.38894 v -11.73107 -5.4746 a 1.1648149,1.1648149 0 0 1 0.0806,-0.40825 1.1648149,1.1648149 0 0 1 0.0579,-0.11368 1.1648149,1.1648149 0 0 1 0.16227,-0.24237 1.1648149,1.1648149 0 0 1 0.10077,-0.10077 1.1648149,1.1648149 0 0 1 0.24184,-0.16174 1.1648149,1.1648149 0 0 1 0.11472,-0.0584 1.1648149,1.1648149 0 0 1 0.40773,-0.0806 h 14.78928 a 1.1648149,1.1648149 0 0 1 0.007,5.1e-4 1.164795,1.164795 0 0 1 0.003,-5.1e-4 c 1.54606,0.0136 2.97702,-0.79826 3.75791,-2.13269 0.78081,-1.33443 0.78877,-2.97944 0.0196,-4.32067 -0.76913,-1.34123 -2.19216,-2.16575 -3.73827,-2.16575 a 1.164795,1.164795 0 0 1 -0.031,-0.005 1.165,1.165 0 0 1 -0.0176,0.003 h -12.03906 c -0.56507,-0.005 -1.08557,0.28949 -1.37098,0.77721 -0.28534,0.48772 -0.28679,1.08592 -0.006,1.57613 0.28112,0.49021 0.79813,0.79117 1.36322,0.79117 a 1.165,1.165 0 0 1 0.0181,0.002 h 12.03492 a 1.1648149,1.1648149 0 0 1 1.16376,1.16375 1.1648149,1.1648149 0 0 1 -1.16376,1.16427 h -12.05301 a 1.1648149,1.1648149 0 0 1 -0.0165,-0.003 c -1.3898,-0.006 -2.67648,-0.75219 -3.36826,-1.95854 -0.69449,-1.21116 -0.68758,-2.70689 0.0176,-3.9119 0.69815,-1.19305 1.98069,-1.92764 3.36103,-1.93064 a 1.165,1.165 0 0 1 0.006,-10e-4 h 12.05198 a 1.165,1.165 0 0 1 0.0455,0.003 1.164795,1.164795 0 0 1 0.003,-5.1e-4 c 2.37704,0 4.5753,1.27574 5.75779,3.33778 1.18251,2.06205 1.17315,4.60485 -0.0274,6.65644 -1.19889,2.04876 -3.40576,3.30237 -5.77897,3.28507 h -13.62501 v 3.14658 h 13.62501 a 1.1648149,1.1648149 0 0 1 1.16375,1.16375 1.1648149,1.1648149 0 0 1 -1.16375,1.16427 h -13.62501 v 10.5668 h 23.30917 c 2.14536,0 3.87263,-1.72728 3.87263,-3.87264 v -29.02768 c 0,-2.14536 -1.72727,-3.87263 -3.87263,-3.87263 z" /></g></g></svg>
