<?xml version="1.0" encoding="UTF-8" standalone="no"?>
<!-- Created with Inkscape (http://www.inkscape.org/) -->

<svg
   width="61.287899mm"
   height="61.288353mm"
   viewBox="0 0 61.2879 61.288353"
   version="1.1"
   id="svg1"
   inkscape:version="1.3 (0e150ed6c4, 2023-07-21)"
   sodipodi:docname="fundus_logo_rund.svg"
   xml:space="preserve"
   inkscape:export-filename="fundus_logo_rund.png"
   inkscape:export-xdpi="212.19197"
   inkscape:export-ydpi="212.19197"
   xmlns:inkscape="http://www.inkscape.org/namespaces/inkscape"
   xmlns:sodipodi="http://sodipodi.sourceforge.net/DTD/sodipodi-0.dtd"
   xmlns="http://www.w3.org/2000/svg"
   xmlns:svg="http://www.w3.org/2000/svg"><sodipodi:namedview
     id="namedview1"
     pagecolor="#505050"
     bordercolor="#eeeeee"
     borderopacity="1"
     inkscape:showpageshadow="0"
     inkscape:pageopacity="0"
     inkscape:pagecheckerboard="0"
     inkscape:deskcolor="#505050"
     inkscape:document-units="mm"
     inkscape:zoom="1.0343421"
     inkscape:cx="-24.169953"
     inkscape:cy="191.90943"
     inkscape:window-width="1920"
     inkscape:window-height="1017"
     inkscape:window-x="-8"
     inkscape:window-y="-8"
     inkscape:window-maximized="1"
     inkscape:current-layer="layer2"
     showgrid="false" /><defs
     id="defs1"><rect
       x="612.91034"
       y="180.4782"
       width="437.14462"
       height="213.2924"
       id="rect443" /><rect
       x="2972.4211"
       y="74.081711"
       width="1755.5607"
       height="252.47018"
       id="rect1" /><inkscape:path-effect
       effect="perspective-envelope"
       up_left_point="215.38248,359.65294"
       up_right_point="401.34812,359.65294"
       down_left_point="215.38248,477.32035"
       down_right_point="401.34812,477.32035"
       id="path-effect116"
       is_visible="true"
       lpeversion="1"
       deform_type="perspective"
       horizontal_mirror="false"
       vertical_mirror="false"
       overflow_perspective="false" /><inkscape:path-effect
       effect="perspective-envelope"
       up_left_point="230.28,359.65294"
       up_right_point="401.34812,359.65294"
       down_left_point="215.38248,477.32035"
       down_right_point="401.34812,477.32035"
       id="path-effect112"
       is_visible="true"
       lpeversion="1"
       deform_type="perspective"
       horizontal_mirror="false"
       vertical_mirror="false"
       overflow_perspective="false" /><rect
       x="2972.4211"
       y="74.081711"
       width="1755.5607"
       height="252.47018"
       id="rect2" /><rect
       x="2972.4211"
       y="74.081711"
       width="1755.5607"
       height="252.47018"
       id="rect6" /><rect
       x="2972.4211"
       y="74.081711"
       width="1755.5607"
       height="252.47018"
       id="rect10" /><rect
       x="2972.4211"
       y="74.081711"
       width="1755.5607"
       height="252.47018"
       id="rect167" /><rect
       x="2972.4211"
       y="74.081711"
       width="1755.5607"
       height="252.47018"
       id="rect171" /><rect
       x="2972.4211"
       y="74.081711"
       width="1755.5607"
       height="252.47018"
       id="rect175" /><rect
       x="2972.4211"
       y="74.081711"
       width="1755.5607"
       height="252.47018"
       id="rect177" /><rect
       x="2972.4211"
       y="74.081711"
       width="1755.5607"
       height="252.47018"
       id="rect181" /><rect
       x="2972.4211"
       y="74.081711"
       width="1755.5607"
       height="252.47018"
       id="rect183" /></defs><g
     inkscape:groupmode="layer"
     id="layer2"
     inkscape:label="Left"
     transform="translate(-36.450161,-125.6594)"><rect
       style="fill:#ffffff;fill-opacity:1;stroke:none;stroke-width:2.33;stroke-linecap:round;stroke-linejoin:round;stroke-opacity:1;paint-order:markers fill stroke"
       id="rect14"
       width="61.287895"
       height="61.288353"
       x="36.450161"
       y="125.6594"
       transform="translate(-5.2083332e-7)" /><path
       id="path13"
       style="display:inline;fill:#0a9d85;fill-opacity:1;stroke:none;stroke-width:3.48076;stroke-linecap:round;stroke-linejoin:round;stroke-dasharray:none;stroke-opacity:1;paint-order:markers fill stroke"
       d="M 36.450161 125.6594 L 36.450161 131.67092 L 36.450161 179.24941 L 36.450161 186.94765 L 41.886005 186.94765 L 51.003278 186.94765 L 51.003278 179.24941 L 51.003278 165.7169 L 51.003278 157.53859 A 1.740102 1.740102 0 0 1 51.123684 156.92829 A 1.740102 1.740102 0 0 1 51.2105 156.75879 A 1.740102 1.740102 0 0 1 51.452863 156.39654 A 1.740102 1.740102 0 0 1 51.603241 156.24616 A 1.740102 1.740102 0 0 1 51.96446 156.00432 A 1.740102 1.740102 0 0 1 52.136025 155.91698 A 1.740102 1.740102 0 0 1 52.74529 155.79658 L 74.838515 155.79658 A 1.740102 1.740102 0 0 1 74.848851 155.79761 A 1.7400722 1.7400722 0 0 1 74.853502 155.79658 C 77.163126 155.81688 79.301072 154.60417 80.467629 152.61073 C 81.634066 150.61724 81.645616 148.15999 80.496568 146.15634 C 79.347579 144.1527 77.222112 142.92088 74.912413 142.92088 A 1.7400722 1.7400722 0 0 1 74.865904 142.91364 A 1.7403785 1.7403785 0 0 1 74.839549 142.91778 L 56.8546 142.91778 C 56.010454 142.91078 55.233033 143.35036 54.806663 144.07895 C 54.380402 144.80755 54.37793 145.70101 54.797362 146.43333 C 55.217319 147.16564 55.989754 147.61517 56.83393 147.61517 A 1.7403785 1.7403785 0 0 1 56.860801 147.61827 L 74.839549 147.61827 A 1.740102 1.740102 0 0 1 76.578461 149.35666 A 1.740102 1.740102 0 0 1 74.839549 151.09609 L 56.83393 151.09609 A 1.740102 1.740102 0 0 1 56.809125 151.09196 C 54.732931 151.08296 52.810827 149.96814 51.777391 148.16604 C 50.739906 146.35671 50.750294 144.12257 51.803746 142.32247 C 52.846698 140.54019 54.762565 139.44288 56.824628 139.4384 A 1.7403785 1.7403785 0 0 1 56.83393 139.43737 L 74.837999 139.43737 A 1.7403785 1.7403785 0 0 1 74.906212 139.44099 A 1.7400722 1.7400722 0 0 1 74.910862 139.44047 C 78.461876 139.44047 81.745392 141.34627 83.511888 144.42673 C 85.278415 147.5072 85.264538 151.30598 83.471064 154.37083 C 81.680062 157.43139 78.383287 159.30387 74.837999 159.27802 L 54.483686 159.27802 L 54.483686 163.97902 L 74.837999 163.97902 A 1.740102 1.740102 0 0 1 76.576394 165.71742 A 1.740102 1.740102 0 0 1 74.837999 167.45685 L 54.483686 167.45685 L 54.483686 179.24941 L 54.483686 186.94765 L 91.894322 186.94765 L 97.737893 186.94765 L 97.737893 179.24941 L 97.737893 131.67092 L 97.737893 125.6594 L 91.894322 125.6594 L 41.886005 125.6594 L 36.450161 125.6594 z " /></g></svg>
